<?xml version="1.0" encoding="utf-8"?>
<!-- Generator: Adobe Illustrator 27.9.0, SVG Export Plug-In . SVG Version: 6.00 Build 0)  -->
<svg version="1.1" id="Layer_1" xmlns="http://www.w3.org/2000/svg" xmlns:xlink="http://www.w3.org/1999/xlink" x="0px" y="0px"
	 viewBox="0 0 608.03 481.44" style="enable-background:new 0 0 608.03 481.44;" xml:space="preserve">
<style type="text/css">
	.st0{clip-path:url(#SVGID_00000023975073985672754670000006702399646299799696_);}
	.st1{opacity:0.36;clip-path:url(#SVGID_00000150793349665103807510000014318030177888995487_);}
	.st2{clip-path:url(#SVGID_00000076603995321808480630000000476317443256651930_);}
	.st3{clip-path:url(#SVGID_00000150793349665103807510000014318030177888995487_);fill:#FFFFFF;}
	.st4{clip-path:url(#SVGID_00000063596161867292833820000013081066926630340772_);}
	.st5{opacity:0.46;clip-path:url(#SVGID_00000150793349665103807510000014318030177888995487_);}
	.st6{clip-path:url(#SVGID_00000121994085147674858610000003341442741377695414_);}
	.st7{clip-path:url(#SVGID_00000162342428669008898730000001855623560011183800_);}
	.st8{clip-path:url(#SVGID_00000151504008179450742650000016263446678861662093_);}
	.st9{clip-path:url(#SVGID_00000046324904928532280740000005454672017123355051_);}
	.st10{clip-path:url(#SVGID_00000032638836574340733780000016261588536104274335_);fill:#F4F4F4;}
	.st11{clip-path:url(#SVGID_00000032638836574340733780000016261588536104274335_);fill:#FFFFFF;}
	.st12{clip-path:url(#SVGID_00000068671831952366178370000006625329591064299654_);fill:#333333;}
	.st13{clip-path:url(#SVGID_00000068671831952366178370000006625329591064299654_);fill:#191919;}
	
		.st14{clip-path:url(#SVGID_00000068671831952366178370000006625329591064299654_);fill:none;stroke:#000000;stroke-width:1.472;stroke-miterlimit:10;}
	.st15{clip-path:url(#SVGID_00000068671831952366178370000006625329591064299654_);fill:#E6E6E6;}
	.st16{clip-path:url(#SVGID_00000068671831952366178370000006625329591064299654_);fill:#283A5E;}
	.st17{clip-path:url(#SVGID_00000068671831952366178370000006625329591064299654_);}
	.st18{fill:#BF865B;}
	.st19{fill:#283A5E;}
	.st20{clip-path:url(#SVGID_00000181771408188882731390000010000384100058130072_);fill:#BF865B;}
	.st21{clip-path:url(#SVGID_00000181771408188882731390000010000384100058130072_);fill:#BD855A;}
	.st22{clip-path:url(#SVGID_00000155836337377570703040000013981143500769793707_);fill:#BD855A;}
	.st23{clip-path:url(#SVGID_00000075125153140846943100000003575227123340124294_);fill:#BD855A;}
	.st24{clip-path:url(#SVGID_00000075122774443253826320000010005309557190483388_);fill:#BD855A;}
	.st25{clip-path:url(#SVGID_00000075122774443253826320000010005309557190483388_);fill:#BF865B;}
	.st26{clip-path:url(#SVGID_00000124878151893800132420000016090931658096332693_);}
	.st27{clip-path:url(#SVGID_00000027600622650584023450000004776537313525634954_);}
	.st28{fill:#293B5E;}
	.st29{font-family:'HelveticaNowDisplay-Bold';}
	.st30{font-size:434.3325px;}
	.st31{clip-path:url(#SVGID_00000005958028930221815180000002294884759520957344_);}
	.st32{clip-path:url(#SVGID_00000093146895704314145780000004062846172161437592_);fill:#BD855A;}
	.st33{clip-path:url(#SVGID_00000093146895704314145780000004062846172161437592_);fill:#293B5E;}
	.st34{clip-path:url(#SVGID_00000120543688141115936850000005557855657837873823_);fill:#BF865B;}
	.st35{clip-path:url(#SVGID_00000098179124858420992530000000941559022956631690_);fill:#293B5E;}
	.st36{clip-path:url(#SVGID_00000177483094153007451590000003009543780469163651_);}
	.st37{clip-path:url(#SVGID_00000054971867673099979330000006811726978681858707_);}
	.st38{clip-path:url(#SVGID_00000134936170973084114260000006234280428283906211_);fill:#FFFFFF;}
	.st39{clip-path:url(#SVGID_00000146500337717035614490000011106369423829678781_);fill:#BD855A;}
	.st40{clip-path:url(#SVGID_00000119832779728071227990000000368865060068620956_);fill:#FFFFFF;}
	.st41{clip-path:url(#SVGID_00000137094859003007684630000018295405044908185482_);fill:#BD855A;}
	.st42{clip-path:url(#SVGID_00000084530886391282124760000008856595258857413782_);fill:#BD855A;}
	.st43{clip-path:url(#SVGID_00000112590711651647478430000018382696985775314868_);}
	.st44{clip-path:url(#SVGID_00000040547558227562211100000016270590547034104967_);fill:#BD855A;}
	.st45{clip-path:url(#SVGID_00000155856957112561088170000002718752116716558486_);}
	.st46{clip-path:url(#SVGID_00000178189267105383303440000014208012433769332645_);fill:#BD855A;}
	.st47{clip-path:url(#SVGID_00000110470950818477684030000009543046048528070329_);}
	.st48{clip-path:url(#SVGID_00000111892981401984695040000001760422715078442880_);fill:#BD855A;}
	.st49{clip-path:url(#SVGID_00000111892981401984695040000001760422715078442880_);fill:#293B5E;}
	.st50{clip-path:url(#SVGID_00000061471900763790820100000003412995186572747916_);fill:#293B5E;}
	.st51{clip-path:url(#SVGID_00000024724676488097142420000013357688138717292195_);fill:#293B5E;}
	.st52{clip-path:url(#SVGID_00000137130736045118607780000009081075661783257224_);}
	.st53{clip-path:url(#SVGID_00000093894091214174700310000011916411185742327203_);}
	.st54{clip-path:url(#SVGID_00000057143780731286906260000006130183462437554563_);}
	.st55{clip-path:url(#SVGID_00000065769646196556272250000009835197562222350976_);}
	.st56{clip-path:url(#SVGID_00000181044828593373276780000009295948048250507179_);fill:#293B5E;}
	.st57{clip-path:url(#SVGID_00000034047679267031338350000007410540889756688557_);}
	.st58{clip-path:url(#SVGID_00000027581305691884510150000016783007212976011433_);}
	.st59{clip-path:url(#SVGID_00000088851595774927994650000003135397347602407317_);}
	.st60{clip-path:url(#SVGID_00000112593374075606178680000005807972438155918745_);}
	.st61{clip-path:url(#SVGID_00000101097306137367877230000013189688772627762853_);}
	.st62{clip-path:url(#SVGID_00000006686494971995315630000012427171168031812252_);fill:#293B5E;}
	.st63{clip-path:url(#SVGID_00000023975073985672754670000006702399646299799696_);fill:#FFFFFF;}
	.st64{clip-path:url(#SVGID_00000121254798619570339350000004626207532632166035_);fill:#BF865B;}
	.st65{clip-path:url(#SVGID_00000121254798619570339350000004626207532632166035_);fill:#FFFFFF;}
	.st66{clip-path:url(#SVGID_00000121254798619570339350000004626207532632166035_);fill:#293B5E;}
	.st67{clip-path:url(#SVGID_00000121254798619570339350000004626207532632166035_);fill:#BD855A;}
	.st68{clip-path:url(#SVGID_00000023975073985672754670000006702399646299799696_);fill:#293B5E;}
	
		.st69{clip-path:url(#SVGID_00000019640825198239469350000006774032006107298451_);fill-rule:evenodd;clip-rule:evenodd;fill:#304668;}
	
		.st70{clip-path:url(#SVGID_00000019640825198239469350000006774032006107298451_);fill-rule:evenodd;clip-rule:evenodd;fill:#BE865B;}
	
		.st71{clip-path:url(#SVGID_00000019640825198239469350000006774032006107298451_);fill-rule:evenodd;clip-rule:evenodd;fill:#293B5F;}
	.st72{clip-path:url(#SVGID_00000088824960503356069870000011955503157804866434_);}
	.st73{fill:#BD855A;}
	.st74{fill-rule:evenodd;clip-rule:evenodd;fill:#3E597B;}
	.st75{fill-rule:evenodd;clip-rule:evenodd;fill:#CB986E;}
	.st76{fill-rule:evenodd;clip-rule:evenodd;fill:#283A5E;}
	.st77{fill:#FFFFFF;}
</style>
<g>
	<defs>
		<rect id="SVGID_1_" x="1690.2" y="-2091.85" width="2462.34" height="13803.8"/>
	</defs>
	<clipPath id="SVGID_00000047739612160849033740000005506148986667466642_">
		<use xlink:href="#SVGID_1_"  style="overflow:visible;"/>
	</clipPath>
	<g style="clip-path:url(#SVGID_00000047739612160849033740000005506148986667466642_);">
		<defs>
			
				<rect id="SVGID_00000126317754535634001910000010156458903208734867_" x="1690.2" y="-2091.82" width="2462.34" height="13803.77"/>
		</defs>
		<clipPath id="SVGID_00000114071364673348569720000000531703824101856941_">
			<use xlink:href="#SVGID_00000126317754535634001910000010156458903208734867_"  style="overflow:visible;"/>
		</clipPath>
		<g style="clip-path:url(#SVGID_00000114071364673348569720000000531703824101856941_);">
			<defs>
				
					<rect id="SVGID_00000049223645043945259930000016843692789269856424_" x="-869.23" y="-1288.04" width="2462.34" height="1773.73"/>
			</defs>
			<clipPath id="SVGID_00000054247049487147081330000013294104198575182486_">
				<use xlink:href="#SVGID_00000049223645043945259930000016843692789269856424_"  style="overflow:visible;"/>
			</clipPath>
			<g style="clip-path:url(#SVGID_00000054247049487147081330000013294104198575182486_);">
				<text transform="matrix(1 0 0 1 97.4287 323.6685)" class="st28 st29 st30">MISION</text>
			</g>
		</g>
	</g>
</g>
<g>
	<path class="st73" d="M420.14,241.48c0-70.22-56.99-127.14-127.29-127.14c-70.3,0-127.28,56.93-127.28,127.14
		c0,70.22,56.99,127.14,127.28,127.14C363.15,368.62,420.14,311.7,420.14,241.48"/>
	<path class="st28" d="M270.34,369.34c-1.4-1.87-3.39-3.53-4.1-5.63c-2.77-8.2-5.24-16.5-7.55-24.83c-0.53-1.91-1.2-2.34-3.02-2.34
		c-5.37-0.01-10.8,0.23-16.09-0.46c-10.22-1.34-17.24-7.23-20.55-16.93c-3.47-10.17-1.06-19.26,6.55-26.82
		c5.23-5.2,11.84-7.14,19.09-7.17c3.58-0.02,7.16,0,10.95,0v-47.78c-8.5-0.79-16.29,1.02-22.2,7.69c-7.02,7.93-8.19,16.94-4,26.7
		c0.64,1.49,1.12,3.31,0.88,4.86c-0.35,2.27-2.09,3.76-4.47,4.01c-2.61,0.28-4.44-1.01-5.59-3.33c-5.01-10.06-5.6-20.37-0.76-30.52
		c6.26-13.14,17.03-19.82,31.6-20.32c1.5-0.05,3-0.01,4.62-0.01v-18.74c-0.65,0.39-1.24,0.67-1.75,1.06
		c-23.39,17.87-54.09,17.7-76.89-0.91c-5.06-4.13-8.94-9.7-13.37-14.61c-3.35-3.71-6.94-7.23-9.97-11.18
		c-4.68-6.09-7.05-13.15-7.73-20.83c-0.15-1.64-0.9-3.45-1.92-4.76c-6.06-7.72-9.38-16.4-9.72-26.19c-0.17-5.06,2.79-7.39,7.76-6.17
		c9.47,2.31,18.91,4.76,28.42,6.88c3.29,0.73,6.76,0.84,10.14,0.87c11.38,0.1,22.76,0.23,34.14-0.01
		c13.4-0.28,23.61,8.1,26.06,20.47c1.62,8.2,7.46,12.55,14.96,11.64c0-3.34,0.09-6.73-0.07-10.1c-0.03-0.66-0.92-1.41-1.58-1.9
		c-10.89-8.04-15.73-18.82-13.15-32.08c2.55-13.12,10.93-21.46,23.95-24.75c14.35-3.63,29.65,4.14,35.88,17.96
		c6.06,13.42,1.64,29.94-10.37,38.26c-1.82,1.26-2.65,2.53-2.45,4.78c0.23,2.56,0.05,5.16,0.05,7.7c6.42,1.3,12.86-3.01,14.54-9.8
		c1.23-4.99,2.63-9.84,6.18-13.78c5.1-5.66,11.52-8.31,19.07-8.34c7.8-0.03,15.6-0.3,23.38,0.06c13.58,0.62,26.78-1.14,39.75-5.07
		c3.42-1.04,6.93-1.79,10.4-2.66c4.31-1.09,5.89-0.43,8.21,3.37v5.91c-0.17,0.59-0.42,1.17-0.5,1.78
		c-1.18,8.18-4.54,15.34-9.74,21.75c-0.87,1.07-1.35,2.7-1.46,4.12c-0.62,7.78-3.05,14.92-7.83,21.06c-3.88,5-8.49,9.42-12.34,14.44
		c-20.63,26.91-56.1,33.17-84.23,14.7c-1.75-1.15-3.4-2.44-5.24-3.77v18.7c22.99-0.9,36.36,15.67,37.94,31.02
		c0.87,8.48-0.93,16.41-5.87,23.43c-7.8,11.07-18.81,15.72-32.47,15.16v29.92c1.42,0,2.84-0.07,4.26,0.01
		c9.24,0.5,16.16,4.78,19.75,13.31c3.53,8.38,2.02,16.29-4.06,23.17c-3.53,3.99-8.22,5.85-13.28,7h-4.3
		c-3.98-2.39-5.28-6.08-2.65-8.64c1.25-1.22,3.41-1.83,5.24-2.09c5.6-0.78,9.71-4.88,10.09-10.49c0.36-5.26-3.37-10.28-8.8-11.22
		c-2.65-0.46-5.45-0.08-7.6-0.08c-2.97,9.26-5.72,18.31-8.84,27.22c-0.7,2-2.71,3.54-4.11,5.3H270.34z M255.82,175.63
		c-3.83-0.87-7.46-1.23-10.7-2.53c-8.48-3.42-13.01-10.1-14.96-18.92c-1.71-7.78-6.64-11.48-14.58-11.5
		c-10.21-0.02-20.43-0.14-30.64,0.04c-9.3,0.16-18.38-1-27.32-3.52c-3.74-1.06-7.54-1.91-11.42-2.88
		c1.85,12.55,15.01,24.33,27.92,25.11c4.91,0.29,9.85,0.16,14.76,0.42c3.27,0.17,5.27,2.37,5.27,5.3c-0.01,2.84-1.94,5.16-5.04,5.19
		c-6.07,0.04-12.19,0.05-18.21-0.61c-4.15-0.46-8.17-2.08-12.46-3.24c4.63,11.18,12.65,18.09,24.62,19.91
		c4.13,0.63,8.4,0.38,12.6,0.47c2.64,0.06,4.79,0.93,5.79,3.51c1.41,3.64-1.19,7.1-5.45,7.21c-3.87,0.1-7.74,0.02-12.3,0.02
		c1.58,1.2,2.53,1.99,3.55,2.68c21.75,14.73,50.75,10.84,67.77-9.11c0.42-0.49,0.76-1.24,0.77-1.87
		C255.85,186.03,255.82,180.76,255.82,175.63 M288.09,175.07c0,5.64-0.03,10.92,0.03,16.19c0.01,0.64,0.31,1.41,0.74,1.88
		c15.31,16.93,36.41,22.14,56.59,14.95c5.19-1.85,10-4.47,14.58-8.49c-4.5,0-8.43,0.09-12.35-0.03c-3.33-0.1-5.6-2.37-5.61-5.32
		c-0.01-2.95,2.27-5.21,5.59-5.35c2.68-0.11,5.37-0.02,8.06-0.04c6.52-0.05,12.58-1.66,17.98-5.38c5.49-3.78,9.47-8.71,11.87-15.71
		c-9.32,4.91-18.82,4.83-28.33,4.72c-4.97-0.05-7.45-1.79-7.5-5.31c-0.04-3.63,2.48-5.43,7.63-5.44c2.51-0.01,5.02,0.01,7.53,0
		c11.92-0.06,21.52-4.7,28.35-14.59c2.21-3.2,3.89-6.69,4.53-10.86c-1.96,0.49-3.62,0.82-5.22,1.31
		c-13.05,3.98-26.35,5.69-40.01,5.14c-7.96-0.32-15.94-0.07-23.92-0.05c-1.34,0-2.71,0-4.01,0.28c-6.72,1.44-10.03,5.98-11.28,12.45
		c-1.32,6.85-5.05,12.14-10.91,15.9C298.18,174.04,293.42,175.07,288.09,175.07 M266.73,284.95h10.45v-127.6h-10.45V284.95z
		 M251.07,125.59c-0.44,11.07,8.87,20.67,20.53,21.17c11.06,0.48,20.78-8.89,21.23-20.48c0.43-10.98-8.83-20.66-20.26-21.17
		C261.26,104.61,251.54,113.87,251.07,125.59 M288.24,237.26v47.78c9.82,0.71,17.9-2.41,23.29-10.57
		c5.57-8.42,5.71-17.41,0.32-26.03C306.5,239.9,298.28,236.79,288.24,237.26 M256.02,296.21c-5.44,0-10.28-0.32-15.06,0.08
		c-6.43,0.54-11.8,6.17-12.54,12.46c-0.84,7.14,2.95,13.75,9.44,16.01c6.06,2.12,12.32,0.67,18.15,1.09V296.21z M272.02,347.63
		c5.38-17.24,5.68-34.28,5.2-51.56h-10.53C266.22,313.38,266.52,330.43,272.02,347.63"/>
</g>
</svg>
